<<<<<<< HEAD
<mxfile host="Electron" modified="2021-03-30T12:57:28.480Z" agent="5.0 (Windows NT 10.0; Win64; x64) AppleWebKit/537.36 (KHTML, like Gecko) draw.io/13.7.9 Chrome/85.0.4183.121 Electron/10.1.3 Safari/537.36" etag="Nsk2DJG-5X4rSAa4eI2F" version="13.7.9" type="device"><diagram id="ba_Pi-uYkK5xsQhN7-iI" name="Page-1">7Vxbc5s4FP41fkwGEAh4zLXbmXYn0+7MtvuGjWyrwcjF8q2/foWRDJKwjR1uTpuHBIkDiE/fd3R0JDIAD7PNhySYTz+TEEUDywg3A/A4sCzT9gD7k9ZssxoPulnFJMEhN8orvuJfiFcavHaJQ7SQDCkhEcVzuXJE4hiNqFQXJAlZy2ZjEslPnQcTpFV8HQWRXvsvDumUv4Xl5vV/ITyZiieb0M/OzAJhzN9kMQ1Csi5UgacBeEgIodnRbPOAohQ8gUt23fOBs/uGJSimVS5wv3g/E+R8+Q96y/F29Tn++cm+4a+xCqIlf2HeWLoVCKynmKKv82CUlteslwfgfkpnESuZ7HCMo+iBRCTZWYOhGYZjg9UvaEJeUeGMabjAZ/e4549ECUWbg+9i7hFi1EJkhmiyZSbiAsfOLuGs8jnG67yLHB9mddNC93iQGwacFpP9rXPk2AEH7wwgPQ3ID2iYLPErSjREGRPm6eFyFt2NaIrPfYoGZqz7FAxR9EIWmGISM5MhoZTMCgZ3EZ6kJyhR+oEsaYRjBrjQgVEP1K4hIW0DHWpRVUS6MaB9Deh/Pj+yF4URe/L9kKENJ+nR3cvH6wbeAz1DXrhkyVlw2AXqomJM2EsWsYc/l0ScuFns3PwdM7DM+SY/Ke7yN6IxRnQcYXZyf0/W6Oy28qNYdeHxSo8z+KncXbJfikmMFCfGqwLe3yPWXSgpIcIMh2H6mPsyB5mQZRyisD422JbMBtPS2WCXsMFqjA1AY8OXgOJ4wupQzH4laIXROh3C0SqtUHqGPYKN4YfwK3RYHeA5MniWp4NnlqHnNoaeraH3jKPZLrpBK4ImOwiDIP0d4R8L2iv8zO7xczT8PsZjkrCoCyNWT1bpuGswXc8W7O8QveIfrx2z0FIkbJU49JZRrBD+oTi8S+Po1BVGwWKBRzIw7OWT7Tfu6HaF72nh1hHFx03x5ONWlEIWZ/PHkIROyYTEQfSU15b60PSq4/CzxpNlMkKnYzUaJBNET5JM789ilFnSXaIuQRFj40pub1kf8ie8ELwbNAW/DHX8t24d+SbZm/LriqG/ciuNeb6r3ioDQ7sV6/pgWzCbpwaLI422lUY7xtGWqfYWdBRWZy3IOb7vh8tpL1guBzLBLJU8DynkkvG0oUwHqSfZn5pIhuXRR0E7PKpgNXyOa8KsyNx+xCleUFUYLKY76puaENAG02+F44LcWClXW1qoLraq8jro3W5YG4BhSr25DxmLHg7WIw8burd+/uPJE0LXv1AqwJMJ6RqK861JKDb0lAYfFwrwjbfZG5K9LKz8atF8Mh4vEFWuqEV8ALYvvmFERq+Xqu/cgeoSfdahPmi5jqI+pyP1QeNS9Tl+K+pT1SEafH1q0vNO73woq0Mqpu2pUgFdDVSGeWsUfqx2h602uSpCvd+Hq+2EXdAXqe7OHb/nXer4VQdrtuP4RYM7d+S2qYnjmScvfhHUt9QFcJ3bEo61mryw9VmcQGyMI4qSnmFmw5LJULuI6SnbfofeNXhgkZ3ap6rqyk5V9dwV8lEiGXxxQiofC4DjylPwJocCVxoKfHlC64BLhwIozwEgODeUEXCYTikULTjzDua47yXSqaIXcEoGVosz4aMq8FTSXRrQi8Ro7XkoQ4YKmMdnwqq9krCt/B4nAq4DEr5pUcMdro2U69GU9AiUn+PyZIUXlGAGSrqW3b5kqy652AdiqpaWXEwlZLNBHZNzS9nJsU/U9WzxxTaPZLVq01VZxuqPrprWldUvXVllY+ZbdWUbfk+XNW2/hWVNW98a9ynbOsJjyHi4mGfhZro94hceTdMm93JvBHS7niwL6utopm+6xj/CzjMM6hqi0z1oehZLgDYLuuaYCheEsGu49BSWgCtEUc/gcjvPXzl6/krA1QsnpiLmOZ0jpm8z1BFqJ9g6GRU1FI4NOgi2/HKadBRsqfmzi8Mr3+hpeOUaLYRXjr7l9HwtlabW3j7luDDLfa5Ea9SSX1FLWW68Ky25ynLhfvnwXC15CmOBrdyoJiW53nlKUu0tsw0llaXHr1tJHe5mrqykA1nzdpTkqbuZVQFUVRJUbmRZzYxJb1USaEVJdSSpG1ZSQTzfi8K6YiV1+l1AY0oCfVUSPG5vqYO0bN+Q8vRk2/nK613Y1vP1Ge2TWKfn1D/U4KrUP9u+jRUckQf63ahvdUp9dTfZpdQH6gf9jS2aHGpyY+RvY5EFlu2he//kz7ri+skP/eLCo7p+on62cqVCgG2kw2CdqeUrEsI7CYBMZS1M3Vh1pQGQy79AbZb6dWSCr5D63QZAB9YI3kx911TaUhf1z1zUeDP1Wwl/6kjdXiH1u82dNkV9r6mAx2mX+ke/4qqN+rVuCJaTokZ/qd/tYvafgOeEvXPCXk2OKvbnSoUV8/9YmZnn//cTPP0P</diagram></mxfile>
=======
<mxfile host="app.diagrams.net" modified="2021-03-30T09:36:31.461Z" agent="5.0 (Windows)" etag="0kiWNtuPrEQqJ6R2FxiO" version="14.5.3" type="github">
  <diagram id="ba_Pi-uYkK5xsQhN7-iI" name="Page-1">
    <mxGraphModel dx="1038" dy="575" grid="1" gridSize="10" guides="1" tooltips="1" connect="1" arrows="1" fold="1" page="1" pageScale="1" pageWidth="827" pageHeight="1169" math="0" shadow="0">
      <root>
        <mxCell id="0" />
        <mxCell id="1" parent="0" />
        <mxCell id="LXSzer9fISaFoLPkZWTG-2" value="" style="whiteSpace=wrap;html=1;aspect=fixed;fillColor=#b1ddf0;strokeColor=#10739e;" parent="1" vertex="1">
          <mxGeometry x="234" y="40" width="490" height="490" as="geometry" />
        </mxCell>
        <mxCell id="LXSzer9fISaFoLPkZWTG-16" style="edgeStyle=orthogonalEdgeStyle;rounded=0;orthogonalLoop=1;jettySize=auto;html=1;endArrow=classic;endFill=1;" parent="1" source="LXSzer9fISaFoLPkZWTG-1" target="LXSzer9fISaFoLPkZWTG-7" edge="1">
          <mxGeometry relative="1" as="geometry" />
        </mxCell>
        <mxCell id="LXSzer9fISaFoLPkZWTG-1" value="Gebruiker" style="shape=umlActor;verticalLabelPosition=bottom;verticalAlign=top;html=1;outlineConnect=0;" parent="1" vertex="1">
          <mxGeometry x="140" y="270" width="30" height="60" as="geometry" />
        </mxCell>
        <mxCell id="LXSzer9fISaFoLPkZWTG-3" value="&lt;b&gt;&lt;font style=&quot;font-size: 21px&quot;&gt;Netnietflix+&lt;/font&gt;&lt;/b&gt;" style="text;html=1;strokeColor=none;fillColor=none;align=center;verticalAlign=middle;whiteSpace=wrap;rounded=0;" parent="1" vertex="1">
          <mxGeometry x="459" y="70" width="40" height="20" as="geometry" />
        </mxCell>
        <mxCell id="LXSzer9fISaFoLPkZWTG-5" value="Informatie over films en series zoeken" style="ellipse;whiteSpace=wrap;html=1;" parent="1" vertex="1">
          <mxGeometry x="290" y="130" width="140" height="70" as="geometry" />
        </mxCell>
        <mxCell id="LXSzer9fISaFoLPkZWTG-7" value="Lijst maken" style="ellipse;whiteSpace=wrap;html=1;" parent="1" vertex="1">
          <mxGeometry x="290" y="265" width="140" height="70" as="geometry" />
        </mxCell>
        <mxCell id="LXSzer9fISaFoLPkZWTG-11" value="Lijst delen" style="ellipse;whiteSpace=wrap;html=1;" parent="1" vertex="1">
          <mxGeometry x="530" y="310" width="140" height="70" as="geometry" />
        </mxCell>
        <mxCell id="LXSzer9fISaFoLPkZWTG-13" value="Lijst printen" style="ellipse;whiteSpace=wrap;html=1;" parent="1" vertex="1">
          <mxGeometry x="530" y="220" width="140" height="70" as="geometry" />
        </mxCell>
        <mxCell id="LXSzer9fISaFoLPkZWTG-15" value="Extends" style="endArrow=block;endSize=16;endFill=0;html=1;dashed=1;edgeStyle=orthogonalEdgeStyle;entryX=1.002;entryY=0.51;entryDx=0;entryDy=0;entryPerimeter=0;rounded=0;" parent="1" source="LXSzer9fISaFoLPkZWTG-13" target="LXSzer9fISaFoLPkZWTG-7" edge="1">
          <mxGeometry width="160" relative="1" as="geometry">
            <mxPoint x="590" y="430" as="sourcePoint" />
            <mxPoint x="432" y="301" as="targetPoint" />
            <Array as="points">
              <mxPoint x="480" y="255" />
              <mxPoint x="480" y="301" />
            </Array>
          </mxGeometry>
        </mxCell>
        <mxCell id="LXSzer9fISaFoLPkZWTG-17" value="Film of serie toevoegen aan de lijst" style="ellipse;whiteSpace=wrap;html=1;" parent="1" vertex="1">
          <mxGeometry x="530" y="130" width="140" height="70" as="geometry" />
        </mxCell>
        <mxCell id="LXSzer9fISaFoLPkZWTG-18" value="Extends" style="endArrow=block;endSize=16;endFill=0;html=1;entryX=1;entryY=0.5;entryDx=0;entryDy=0;exitX=0;exitY=0.5;exitDx=0;exitDy=0;dashed=1;" parent="1" source="LXSzer9fISaFoLPkZWTG-17" target="LXSzer9fISaFoLPkZWTG-5" edge="1">
          <mxGeometry x="-0.2" width="160" relative="1" as="geometry">
            <mxPoint x="430" y="220" as="sourcePoint" />
            <mxPoint x="590" y="220" as="targetPoint" />
            <mxPoint as="offset" />
          </mxGeometry>
        </mxCell>
        <mxCell id="LXSzer9fISaFoLPkZWTG-19" value="Een serie of film raten" style="ellipse;whiteSpace=wrap;html=1;" parent="1" vertex="1">
          <mxGeometry x="290" y="390" width="140" height="70" as="geometry" />
        </mxCell>
        <mxCell id="Pfeq7gXLEv4jxpnRmxLg-1" value="" style="endArrow=classic;html=1;entryX=0;entryY=0.5;entryDx=0;entryDy=0;edgeStyle=orthogonalEdgeStyle;rounded=0;" parent="1" target="LXSzer9fISaFoLPkZWTG-5" edge="1">
          <mxGeometry width="50" height="50" relative="1" as="geometry">
            <mxPoint x="170" y="300" as="sourcePoint" />
            <mxPoint x="210" y="180" as="targetPoint" />
            <Array as="points">
              <mxPoint x="210" y="300" />
              <mxPoint x="210" y="165" />
            </Array>
          </mxGeometry>
        </mxCell>
        <mxCell id="Pfeq7gXLEv4jxpnRmxLg-2" value="" style="endArrow=classic;html=1;entryX=0;entryY=0.5;entryDx=0;entryDy=0;rounded=0;edgeStyle=orthogonalEdgeStyle;" parent="1" target="LXSzer9fISaFoLPkZWTG-19" edge="1">
          <mxGeometry width="50" height="50" relative="1" as="geometry">
            <mxPoint x="170" y="300" as="sourcePoint" />
            <mxPoint x="200" y="430" as="targetPoint" />
            <Array as="points">
              <mxPoint x="210" y="300" />
              <mxPoint x="210" y="425" />
            </Array>
          </mxGeometry>
        </mxCell>
        <mxCell id="Pfeq7gXLEv4jxpnRmxLg-4" value="Extends" style="endArrow=none;endSize=16;endFill=0;html=1;dashed=1;edgeStyle=orthogonalEdgeStyle;rounded=0;exitX=0;exitY=0.5;exitDx=0;exitDy=0;" parent="1" source="LXSzer9fISaFoLPkZWTG-11" edge="1">
          <mxGeometry x="0.0345" width="160" relative="1" as="geometry">
            <mxPoint x="540.0000339731696" y="265.0344827586207" as="sourcePoint" />
            <mxPoint x="450" y="300" as="targetPoint" />
            <Array as="points">
              <mxPoint x="480" y="345" />
              <mxPoint x="480" y="300" />
            </Array>
            <mxPoint as="offset" />
          </mxGeometry>
        </mxCell>
        <mxCell id="QYJACFKK7h_iqRalgQ8C-1" value="Actor" style="shape=umlActor;verticalLabelPosition=bottom;verticalAlign=top;html=1;outlineConnect=0;" vertex="1" parent="1">
          <mxGeometry x="750" y="200" width="30" height="60" as="geometry" />
        </mxCell>
      </root>
    </mxGraphModel>
  </diagram>
</mxfile>
>>>>>>> 47e17924f36bfd19b9fca137541256c0026caab9
